<?xml version="1.0" encoding="UTF-8"?>
<svg width="241px" height="104px" viewBox="0 0 241 104" version="1.1" xmlns="http://www.w3.org/2000/svg" xmlns:xlink="http://www.w3.org/1999/xlink">
    <!-- Generator: Sketch 63.1 (92452) - https://sketch.com -->
    <title>Group 51</title>
    <desc>Created with Sketch.</desc>
    <defs>
        <polygon id="path-1" points="0.000147289978 0.9921 67.0656 0.9921 67.0656 91 0.000147289978 91"></polygon>
        <polygon id="path-3" points="0 103.1 240.457 103.1 240.457 -1.42108547e-14 0 -1.42108547e-14"></polygon>
    </defs>
    <g id="Page-1" stroke="none" stroke-width="1" fill="none" fill-rule="evenodd">
        <g id="Group-51">
            <path d="M187.1945,-1.42108547e-14 C187.1945,-1.42108547e-14 187.9625,18.149 170.9015,20.55 L170.9015,-1.42108547e-14 L187.1945,-1.42108547e-14 Z" id="Fill-1" fill="#FFFFFF"></path>
            <g id="Group-5" transform="translate(0.000000, 12.100000)">
                <mask id="mask-2" fill="white">
                    <use xlink:href="#path-1"></use>
                </mask>
                <g id="Clip-4"></g>
                <path d="M67.0656,91.0001 L49.4926,91.0001 L49.4926,34.6651 C49.4926,32.4561 49.0766,30.4071 48.2126,28.4551 C47.3796,26.5021 46.2286,24.8381 44.7876,23.3971 C43.3476,21.9571 41.6506,20.8371 39.7306,19.9731 C37.8096,19.1411 35.7296,18.6921 33.5206,18.6921 C31.3116,18.6921 29.2636,19.1081 27.3106,19.9091 C25.3576,20.7091 23.6936,21.8291 22.2536,23.2701 C20.8136,24.7101 19.6926,26.3751 18.8286,28.2631 C17.9646,30.1511 17.5476,32.2001 17.5476,34.4091 C17.5476,36.6171 17.9646,38.6661 18.7646,40.6181 C19.5646,42.5711 20.6856,44.2351 22.1256,45.6761 C23.5656,47.1161 25.2306,48.2361 27.1186,49.1011 C29.0076,49.9331 31.0556,50.3491 33.2646,50.3491 C37.0736,50.3491 40.2746,49.2921 42.8666,47.1801 L42.8666,66.7701 C39.6666,67.6981 36.3696,68.1461 33.0086,68.1461 C28.4626,68.1461 24.1416,67.2501 20.1086,65.4891 C16.0756,63.7291 12.5546,61.2961 9.5456,58.2231 C6.5686,55.1501 4.2006,51.5651 2.4716,47.4681 C0.7436,43.3711 -0.0884,39.0181 0.0076,34.3761 C0.0076,29.7351 0.9036,25.4141 2.6646,21.3491 C4.4246,17.3161 6.8256,13.7631 9.8656,10.7221 C12.9066,7.6811 16.4276,5.3121 20.4926,3.5841 C24.5256,1.8551 28.8786,0.9921 33.5206,0.9921 C38.1616,0.9921 42.5146,1.8881 46.6116,3.6481 C50.7096,5.4091 54.2626,7.8091 57.3026,10.8501 C60.3436,13.8911 62.7126,17.4441 64.4406,21.5411 C66.1696,25.6381 67.0336,29.9911 67.0336,34.6331 L67.0336,91.0001 L67.0656,91.0001 Z" id="Fill-3" fill="#FFFFFF" mask="url(#mask-2)"></path>
            </g>
            <path d="M168.7248,43.0835 C168.7248,43.5955 168.7568,44.1405 168.7888,44.7165 C168.8218,45.2925 168.8538,45.9005 168.8538,46.4765 L168.8538,80.2455 L151.0248,80.2455 L151.0248,46.8605 C151.0248,44.7485 150.7368,42.7315 150.1928,40.7795 C149.6478,38.8265 148.8478,37.1295 147.7908,35.6575 C146.7358,34.1855 145.4548,33.0335 143.9178,32.1685 C142.3818,31.3365 140.6858,30.8885 138.7338,30.8885 C135.2768,30.8885 132.5868,32.3285 130.6348,35.1775 C128.6828,38.0585 127.6898,41.8035 127.5938,46.4445 L127.5938,80.2135 L110.0208,80.2135 L110.0208,46.8605 C110.0208,42.0595 109.0608,38.1865 107.1088,35.2735 C105.1558,32.3605 102.4348,30.9205 98.8828,30.9205 C97.0258,30.9205 95.3288,31.3365 93.8248,32.2005 C92.3208,33.0335 91.0078,34.1855 89.9198,35.6255 C88.8318,37.0655 87.9678,38.7625 87.3918,40.6835 C86.8148,42.6355 86.4948,44.6525 86.4948,46.7645 L86.4948,80.2775 L69.0498,80.2775 L69.0498,46.4765 C69.0498,41.8355 69.7868,37.5145 71.2588,33.4495 C72.7308,29.4165 74.8118,25.8625 77.4688,22.8225 C80.1248,19.7815 83.3258,17.4125 87.0708,15.6845 C90.8158,13.9555 94.9768,13.0915 99.5228,13.0915 C103.0758,13.0915 106.4688,13.9235 109.7018,15.5565 C112.9338,17.1885 115.9748,19.1095 118.7598,21.3175 C121.4488,19.1415 124.3928,17.2205 127.6258,15.5565 C130.8278,13.9235 134.3798,13.0915 138.2528,13.0915 C142.5418,13.0915 146.4798,13.8595 150.0648,15.3645 C153.6498,16.8685 156.7538,18.9805 159.3468,21.7015 C161.9718,24.3905 164.0518,27.5915 165.6848,31.2405 C167.3168,34.9215 168.3088,38.8585 168.7248,43.0835" id="Fill-6" fill="#FFFFFF"></path>
            <path d="M223.3322,30.7925 C221.1232,30.7925 219.0752,31.2085 217.1222,32.0725 C215.1702,32.9045 213.5052,34.0575 212.0642,35.4975 C210.6242,36.9385 209.5042,38.6025 208.7042,40.5555 C207.9032,42.5075 207.4872,44.5565 207.4872,46.7645 C207.4872,48.9735 207.9032,51.0215 208.7362,52.9745 C209.5682,54.9265 210.7212,56.5915 212.1612,58.0315 C213.6022,59.4725 215.2662,60.5925 217.1542,61.3925 C219.0432,62.1925 221.0912,62.6085 223.3002,62.6085 L239.2402,62.6085 L239.2402,80.3095 L223.3002,80.3095 C218.6582,80.3095 214.3062,79.4455 210.2722,77.7175 C206.2072,75.9885 202.6862,73.6205 199.6452,70.5795 C196.6042,67.5385 194.2042,63.9855 192.4432,59.8885 C190.6832,55.7915 189.7872,51.4385 189.7872,46.7965 C189.7872,42.1555 190.6512,37.8025 192.3802,33.7055 C194.1082,29.6075 196.4772,26.0555 199.5182,23.0145 C202.5592,19.9735 206.1112,17.5725 210.2082,15.8125 C214.3062,14.0515 218.6582,13.1555 223.3002,13.1555 L239.2402,13.1555 L239.2402,30.8565 L223.3322,30.8565 L223.3322,30.7925 Z" id="Fill-8" fill="#FFFFFF"></path>
            <path d="M187.9621,7.7783 L187.9621,80.2453 L170.9011,80.2453 L170.9011,24.1343 C179.7691,23.5263 186.9061,16.6123 187.9621,7.7783" id="Fill-10" fill="#FFFFFF"></path>
            <path d="M75.3557,93.6255 C75.7397,93.2415 76.0607,92.7615 76.2517,92.1855 C76.4437,91.6085 76.5407,91.0005 76.5407,90.3285 C76.5407,89.6245 76.4437,89.0165 76.2517,88.5035 C76.0607,87.9915 75.8357,87.5435 75.5157,87.1915 C75.1957,86.8395 74.8437,86.5835 74.4277,86.3915 C74.0117,86.2315 73.5317,86.1355 73.0517,86.1355 C72.4427,86.1355 71.9307,86.2635 71.5147,86.4875 C71.0667,86.7115 70.7147,87.0315 70.4267,87.4155 C70.1387,87.7995 69.9467,88.2485 69.8187,88.7605 C69.6897,89.2725 69.6267,89.7845 69.6267,90.3285 C69.6267,90.8725 69.6897,91.4175 69.8187,91.9295 C69.9467,92.4405 70.1707,92.8575 70.4587,93.2415 C70.7467,93.6255 71.0987,93.9135 71.5467,94.1375 C71.9947,94.3615 72.5067,94.4895 73.1157,94.4895 C73.4357,94.4895 73.7557,94.4575 74.0117,94.3615 C74.2677,94.2975 74.5237,94.1695 74.7477,94.0735 L73.6917,93.2735 L74.1717,92.6655 L75.3557,93.6255 Z M77.2447,95.0655 L76.7647,95.6735 L75.3877,94.6175 C75.0677,94.8095 74.7157,94.9695 74.3317,95.0975 C73.9477,95.1935 73.5317,95.2575 73.0517,95.2575 C72.3467,95.2575 71.7067,95.1295 71.1627,94.8735 C70.6187,94.6175 70.1707,94.2655 69.7867,93.8175 C69.4347,93.3695 69.1467,92.8575 68.9547,92.2495 C68.7617,91.6415 68.6667,91.0325 68.6667,90.3285 C68.6667,89.6885 68.7617,89.0485 68.9217,88.4725 C69.1147,87.8635 69.3707,87.3515 69.7227,86.9035 C70.0747,86.4555 70.5227,86.0715 71.0667,85.8155 C71.6107,85.5595 72.2517,85.3995 72.9557,85.3995 C73.6277,85.3995 74.2037,85.4955 74.7477,85.7195 C75.2917,85.9435 75.7397,86.2635 76.1247,86.6795 C76.5077,87.0955 76.7957,87.6075 77.0207,88.2155 C77.2447,88.8245 77.3407,89.5285 77.3407,90.3285 C77.3407,91.0965 77.2127,91.8005 76.9887,92.4405 C76.7647,93.0815 76.4127,93.6575 75.9317,94.1055 L77.2447,95.0655 Z" id="Fill-12" fill="#FFFFFF"></path>
            <path d="M82.8781,91.4487 C82.5581,91.5767 82.2061,91.6727 81.8851,91.7367 C81.5331,91.7687 81.2131,91.8327 80.8611,91.8327 C80.2531,91.8647 79.8051,92.0247 79.4531,92.2487 C79.1331,92.4727 78.9411,92.8247 78.9411,93.2737 C78.9411,93.4657 78.9731,93.6567 79.0691,93.8177 C79.1651,93.9777 79.2611,94.1057 79.3891,94.2017 C79.5171,94.2977 79.6771,94.3617 79.8691,94.4257 C80.0611,94.4577 80.2211,94.4897 80.4131,94.4897 C80.7331,94.4897 81.0221,94.4577 81.3101,94.3617 C81.5971,94.2977 81.8541,94.1697 82.0781,94.0097 C82.3021,93.8497 82.4941,93.6567 82.6221,93.4017 C82.7501,93.1457 82.8141,92.8577 82.8141,92.5367 L82.8781,91.4487 Z M81.5331,91.0647 C81.6931,91.0327 81.8541,91.0327 82.0451,91.0007 C82.2381,90.9687 82.4301,90.9047 82.5581,90.8727 C82.6861,90.8087 82.7501,90.7127 82.7821,90.5527 C82.8141,90.4247 82.8141,90.2647 82.8141,90.1687 C82.8141,89.7527 82.6861,89.4317 82.4301,89.1767 C82.1731,88.9197 81.7571,88.7917 81.1491,88.7917 C80.8931,88.7917 80.6371,88.8237 80.4131,88.8557 C80.1891,88.9197 79.9971,88.9847 79.8051,89.1127 C79.6451,89.2407 79.5171,89.4007 79.3891,89.5927 C79.2931,89.7837 79.1971,90.0407 79.1651,90.3287 L78.3651,90.3287 C78.3971,89.9447 78.4931,89.5927 78.6211,89.3037 C78.7811,89.0157 78.9731,88.7917 79.2291,88.5997 C79.4851,88.4077 79.7731,88.2797 80.0931,88.2157 C80.4131,88.1197 80.7651,88.0877 81.1171,88.0877 C81.4691,88.0877 81.7901,88.1197 82.0781,88.1837 C82.3661,88.2477 82.6221,88.3757 82.8461,88.5357 C83.0701,88.6967 83.2301,88.9197 83.3581,89.1767 C83.4861,89.4317 83.5501,89.7837 83.5501,90.1687 L83.5501,93.8177 C83.5501,94.1377 83.6141,94.3297 83.7101,94.3937 C83.8061,94.4897 84.0301,94.4577 84.3821,94.3297 L84.3821,94.9377 C84.3181,94.9377 84.2221,94.9697 84.1261,95.0017 C83.9981,95.0337 83.9021,95.0657 83.7741,95.0657 C83.6461,95.0657 83.5181,95.0657 83.4221,95.0337 C83.2941,95.0017 83.1981,94.9697 83.1021,94.9057 C83.0381,94.8417 82.9741,94.7457 82.9101,94.6817 C82.8461,94.5857 82.8141,94.4897 82.8141,94.3937 C82.7821,94.2977 82.7821,94.1697 82.7821,94.0417 C82.4611,94.3937 82.0781,94.6817 81.6621,94.8737 C81.2451,95.0657 80.7651,95.1617 80.2851,95.1617 C79.9971,95.1617 79.7091,95.1297 79.4211,95.0337 C79.1331,94.9697 78.9091,94.8417 78.6851,94.6817 C78.4931,94.5217 78.3001,94.3297 78.2051,94.0737 C78.0771,93.8497 78.0131,93.5617 78.0131,93.2097 C78.0131,92.0567 78.7811,91.3847 80.3491,91.1607 L81.5331,91.0647 Z" id="Fill-14" fill="#FFFFFF"></path>
            <path d="M87.3913,95.0019 C87.2953,95.0339 87.1673,95.0339 87.0073,95.0979 C86.8473,95.1299 86.6873,95.1619 86.4953,95.1619 C86.1113,95.1619 85.8233,95.0659 85.5993,94.8739 C85.4063,94.6819 85.2783,94.3299 85.2783,93.8169 L85.2783,88.8879 L84.3183,88.8879 L84.3183,88.2479 L85.2783,88.2479 L85.2783,86.3589 L86.0463,86.3589 L86.0463,88.2479 L87.2953,88.2479 L87.2953,88.8879 L86.0463,88.8879 L86.0463,93.4979 L86.0463,93.9449 C86.0463,94.0739 86.0793,94.1689 86.1113,94.2329 C86.1423,94.3299 86.2063,94.3619 86.3033,94.3939 C86.3993,94.4259 86.5273,94.4579 86.6873,94.4579 C86.7833,94.4579 86.8793,94.4579 87.0073,94.4259 C87.1033,94.3939 87.2313,94.3939 87.3273,94.3619 L87.3273,95.0019 L87.3913,95.0019 Z" id="Fill-16" fill="#FFFFFF"></path>
            <path d="M92.4167,91.4487 C92.0967,91.5767 91.7447,91.6727 91.4247,91.7367 C91.0717,91.7687 90.7517,91.8327 90.3997,91.8327 C89.7917,91.8647 89.3437,92.0247 88.9917,92.2487 C88.6717,92.4727 88.4797,92.8247 88.4797,93.2737 C88.4797,93.4977 88.5117,93.6567 88.6077,93.8177 C88.7037,93.9777 88.7997,94.1057 88.9277,94.2017 C89.0557,94.2977 89.2157,94.3617 89.4077,94.4257 C89.5677,94.4577 89.7597,94.4897 89.9517,94.4897 C90.2717,94.4897 90.5607,94.4577 90.8487,94.3617 C91.1367,94.2977 91.3927,94.1697 91.6167,94.0097 C91.8407,93.8497 92.0327,93.6567 92.1607,93.4017 C92.2887,93.1457 92.3527,92.8577 92.3527,92.5367 L92.3527,91.4487 L92.4167,91.4487 Z M91.0717,91.0327 C91.2317,91.0327 91.3927,91.0007 91.5837,90.9687 C91.7767,90.9367 91.9687,90.8727 92.0967,90.8087 C92.2247,90.7447 92.3207,90.6487 92.3527,90.5207 C92.3847,90.3607 92.3847,90.2327 92.3847,90.1367 C92.3847,89.7527 92.2567,89.4007 91.9997,89.1437 C91.7447,88.8877 91.3287,88.7607 90.7197,88.7607 C90.4637,88.7607 90.2077,88.7917 89.9837,88.8237 C89.7597,88.8557 89.5677,88.9517 89.4077,89.0797 C89.2477,89.2077 89.0877,89.3367 88.9917,89.5607 C88.8957,89.7527 88.7997,90.0087 88.7677,90.2967 L87.9677,90.2967 C87.9997,89.9127 88.0957,89.5607 88.2557,89.2727 C88.4157,88.9847 88.6077,88.7607 88.8637,88.5677 C89.1197,88.3757 89.4077,88.2477 89.7277,88.1837 C90.0477,88.0877 90.3997,88.0557 90.7517,88.0557 C91.1047,88.0557 91.3927,88.0877 91.7127,88.1517 C91.9997,88.2157 92.2567,88.3437 92.4807,88.5037 C92.7047,88.6637 92.8647,88.8877 92.9927,89.1437 C93.1207,89.4007 93.1847,89.7527 93.1847,90.1367 L93.1847,93.8177 C93.1847,94.1377 93.2487,94.3297 93.3447,94.3937 C93.4407,94.4897 93.6647,94.4577 94.0167,94.3297 L94.0167,94.9377 C93.9527,94.9697 93.8567,94.9697 93.7607,95.0017 C93.6327,95.0337 93.5367,95.0657 93.4087,95.0657 C93.2807,95.0657 93.1847,95.0657 93.0567,95.0337 C92.9287,95.0017 92.8327,94.9697 92.7367,94.9057 C92.6407,94.8417 92.6087,94.7457 92.5447,94.6817 C92.4807,94.5857 92.4487,94.4897 92.4487,94.3937 C92.4487,94.2977 92.4167,94.1697 92.4167,94.0417 C92.0967,94.3937 91.7127,94.6817 91.2957,94.8737 C90.8797,95.0657 90.3997,95.1617 89.9197,95.1617 C89.6317,95.1617 89.3437,95.1297 89.0557,95.0337 C88.7997,94.9697 88.5437,94.8417 88.3197,94.6817 C88.0957,94.5217 87.9357,94.3297 87.8397,94.0737 C87.7107,93.8497 87.6467,93.5617 87.6467,93.2097 C87.6467,92.0567 88.4157,91.3847 89.9837,91.1607 L91.0717,91.0327 Z" id="Fill-18" fill="#FFFFFF"></path>
            <path d="M95.3933,94.9697 L94.6253,94.9697 L94.6253,88.2477 L95.3933,88.2477 L95.3933,89.4957 L95.4253,89.4957 C95.6493,88.9517 95.9053,88.5997 96.2573,88.3757 C96.6093,88.1517 97.0583,88.0557 97.6013,88.0557 L97.6013,88.8877 C97.1543,88.8877 96.8023,88.9517 96.5143,89.0797 C96.2263,89.2407 96.0013,89.4317 95.8413,89.6887 C95.6813,89.9447 95.5533,90.2327 95.4893,90.5847 C95.4253,90.9367 95.3933,91.2887 95.3933,91.6407 L95.3933,94.9697 Z" id="Fill-20" fill="#FFFFFF"></path>
            <polygon id="Fill-22" fill="#FFFFFF" points="101.2829 94.9697 101.2509 85.6227 102.5949 85.6227 105.6679 93.8817 105.6999 93.8817 108.7089 85.6227 110.0539 85.6227 110.0849 94.9697 109.2209 94.9697 109.2209 86.6157 109.1889 86.6157 106.1479 94.9697 105.3159 94.9697 102.2109 86.6157 102.1789 86.6157 102.1789 94.9697"></polygon>
            <path d="M116.3591,91.5767 C116.3591,91.1927 116.3271,90.8087 116.2311,90.4567 C116.1351,90.1047 116.0071,89.8167 115.8151,89.5607 C115.6231,89.3047 115.3991,89.1127 115.1101,88.9517 C114.8221,88.7917 114.4701,88.7277 114.0541,88.7277 C113.6381,88.7277 113.2861,88.8247 112.9981,88.9847 C112.7101,89.1437 112.4861,89.3687 112.2941,89.6247 C112.1021,89.8807 111.9741,90.2007 111.8781,90.5207 C111.7821,90.8727 111.7501,91.2247 111.7501,91.5767 C111.7501,91.9937 111.8141,92.3767 111.9101,92.7287 C112.0061,93.0807 112.1661,93.3687 112.3581,93.6257 C112.5501,93.8817 112.7741,94.0737 113.0621,94.2017 C113.3501,94.3297 113.6701,94.3937 114.0541,94.3937 C114.4701,94.3937 114.8221,94.2977 115.1101,94.1377 C115.3991,93.9777 115.6231,93.7537 115.8151,93.4977 C116.0071,93.2417 116.1351,92.9217 116.2311,92.6007 C116.2951,92.2817 116.3591,91.9297 116.3591,91.5767 M114.0541,95.1297 C113.6061,95.1297 113.2221,95.0337 112.8381,94.9057 C112.4541,94.7457 112.1341,94.5217 111.8461,94.2337 C111.5581,93.9457 111.3341,93.5617 111.1731,93.1457 C111.0131,92.6977 110.9181,92.1847 110.9181,91.6087 C110.9181,91.1287 110.9821,90.6487 111.1091,90.2327 C111.2371,89.8167 111.4301,89.4317 111.6861,89.1127 C111.9421,88.7917 112.2621,88.5357 112.6461,88.3447 C113.0301,88.1517 113.4781,88.0557 114.0221,88.0557 C114.5341,88.0557 115.0151,88.1517 115.3991,88.3447 C115.7831,88.5357 116.1031,88.7917 116.3591,89.1127 C116.6151,89.4317 116.8071,89.7847 116.9351,90.2327 C117.0631,90.6807 117.1271,91.1287 117.1271,91.6087 C117.1271,92.1527 117.0631,92.6337 116.9031,93.0497 C116.7431,93.4977 116.5511,93.8497 116.2631,94.1697 C115.9751,94.4897 115.6551,94.7137 115.2711,94.9057 C114.9511,95.0337 114.5341,95.1297 114.0541,95.1297" id="Fill-24" fill="#FFFFFF"></path>
            <path d="M118.8239,91.5449 C118.8239,91.9609 118.8879,92.3449 118.9839,92.6969 C119.0799,93.0489 119.2399,93.3369 119.4319,93.5929 C119.6239,93.8499 119.8479,94.0419 120.1359,94.2019 C120.4239,94.3619 120.7439,94.4259 121.0959,94.4259 C121.4159,94.4259 121.7369,94.3619 122.0249,94.2329 C122.3129,94.1059 122.5369,93.9449 122.7609,93.7219 C122.9529,93.4979 123.1449,93.2099 123.2409,92.8889 C123.3689,92.5689 123.4009,92.1849 123.4009,91.7689 C123.4009,91.3529 123.3689,90.9369 123.3049,90.5849 C123.2089,90.2329 123.0809,89.8799 122.8889,89.6249 C122.6969,89.3369 122.4409,89.1119 122.1529,88.9839 C121.8649,88.8239 121.5119,88.7279 121.0959,88.7279 C120.7439,88.7279 120.4239,88.7919 120.1359,88.9519 C119.8479,89.1119 119.6239,89.3039 119.4319,89.5609 C119.2399,89.8159 119.0799,90.1049 118.9839,90.4569 C118.8879,90.7769 118.8239,91.1609 118.8239,91.5449 L118.8239,91.5449 Z M118.8239,94.9379 L118.0549,94.9379 L118.0549,85.5909 L118.8239,85.5909 L118.8239,89.3039 C119.0799,88.8879 119.4319,88.5679 119.8479,88.3439 C120.2959,88.1199 120.7439,88.0239 121.2239,88.0239 C121.7369,88.0239 122.1849,88.1199 122.5689,88.3119 C122.9529,88.5039 123.2729,88.7599 123.4969,89.0799 C123.7529,89.3999 123.9449,89.7839 124.0409,90.2009 C124.1689,90.6169 124.2329,91.0969 124.2329,91.5449 C124.2329,92.0249 124.1689,92.5049 124.0729,92.9529 C123.9769,93.3689 123.7849,93.7529 123.5289,94.0739 C123.2729,94.3939 122.9849,94.6499 122.6009,94.8099 C122.2169,95.0019 121.7689,95.0979 121.2239,95.0979 C120.9999,95.0979 120.7759,95.0659 120.5519,95.0019 C120.3279,94.9379 120.1039,94.8739 119.8799,94.7459 C119.6559,94.6499 119.4639,94.4899 119.3039,94.3299 C119.1119,94.1699 118.9839,93.9779 118.8559,93.7529 L118.8239,93.7529 L118.8239,94.9379 Z" id="Fill-26" fill="#FFFFFF"></path>
            <mask id="mask-4" fill="white">
                <use xlink:href="#path-3"></use>
            </mask>
            <g id="Clip-29"></g>
            <path d="M125.385,94.906 L126.153,94.906 L126.153,88.184 L125.385,88.184 L125.385,94.906 Z M125.322,86.711 L126.186,86.711 L126.186,85.559 L125.322,85.559 L125.322,86.711 Z" id="Fill-28" fill="#FFFFFF" mask="url(#mask-4)"></path>
            <polygon id="Fill-30" fill="#FFFFFF" mask="url(#mask-4)" points="127.6262 94.9058 127.5942 85.5588 128.3622 85.5588 128.3622 94.9058"></polygon>
            <path d="M129.835,94.906 L130.603,94.906 L130.603,88.184 L129.835,88.184 L129.835,94.906 Z M129.803,86.711 L130.667,86.711 L130.667,85.559 L129.803,85.559 L129.803,86.711 Z" id="Fill-31" fill="#FFFFFF" mask="url(#mask-4)"></path>
            <path d="M134.3156,94.9058 C134.2196,94.9378 134.0916,94.9698 133.9316,95.0018 C133.7716,95.0338 133.6116,95.0658 133.4196,95.0658 C133.0356,95.0658 132.7476,94.9698 132.5236,94.7778 C132.3316,94.5858 132.2036,94.2338 132.2036,93.7218 L132.2036,88.7918 L131.2436,88.7918 L131.2436,88.1518 L132.2036,88.1518 L132.2036,86.2958 L132.9716,86.2958 L132.9716,88.1518 L134.2196,88.1518 L134.2196,88.7918 L132.9716,88.7918 L132.9716,93.4018 C132.9716,93.5618 132.9716,93.7218 133.0036,93.8178 C133.0036,93.9458 133.0356,94.0418 133.0676,94.1058 C133.0996,94.1698 133.1636,94.2338 133.2596,94.2658 C133.3556,94.2978 133.4836,94.3298 133.6436,94.3298 C133.7396,94.3298 133.8676,94.3298 133.9636,94.2978 C134.0596,94.2658 134.1876,94.2658 134.2846,94.2338 L134.2846,94.9058 L134.3156,94.9058 Z" id="Fill-32" fill="#FFFFFF" mask="url(#mask-4)"></path>
            <path d="M134.8918,96.7305 C134.9888,96.7625 135.1168,96.7625 135.2118,96.7945 C135.3078,96.7945 135.4368,96.8265 135.5328,96.8265 C135.7558,96.8265 135.9158,96.7625 136.0768,96.6025 C136.2038,96.4745 136.3318,96.3135 136.4288,96.0905 C136.5248,95.8975 136.5878,95.7065 136.6528,95.4815 C136.7168,95.2575 136.7808,95.0975 136.8448,94.9385 L134.2198,88.1845 L135.0838,88.1845 L137.2608,93.9775 L139.4058,88.1845 L140.2378,88.1845 L137.7408,94.8415 C137.5808,95.2575 137.4528,95.6425 137.2928,95.9945 C137.1638,96.3465 137.0048,96.6345 136.8448,96.8585 C136.6848,97.1145 136.5248,97.2745 136.2998,97.4025 C136.1088,97.5305 135.8838,97.5945 135.5958,97.5945 C135.4678,97.5945 135.3078,97.5945 135.1798,97.5625 C135.0518,97.5305 134.9558,97.5305 134.8288,97.4985 L134.8288,96.7305 L134.8918,96.7305 Z" id="Fill-33" fill="#FFFFFF" mask="url(#mask-4)"></path>
            <polygon id="Fill-34" fill="#FFFFFF" mask="url(#mask-4)" points="144.175 94.873 145.071 94.873 145.071 85.527 144.175 85.527"></polygon>
            <path d="M147.4719,94.8735 L146.7029,94.8735 L146.7029,88.1515 L147.4719,88.1515 L147.4719,89.0805 C147.7909,88.7605 148.1119,88.4725 148.4319,88.2795 C148.7519,88.0565 149.1679,87.9595 149.6479,87.9595 C150.0649,87.9595 150.4489,88.0235 150.7999,88.1845 C151.1529,88.3445 151.4729,88.5675 151.6969,88.9195 C151.8569,89.1445 151.9519,89.4005 151.9849,89.6565 C152.0169,89.9125 152.0169,90.1685 152.0169,90.4565 L152.0169,94.8735 L151.2479,94.8735 L151.2479,90.4885 C151.2479,89.8805 151.1199,89.4325 150.8319,89.1125 C150.5759,88.8245 150.1279,88.6645 149.4889,88.6645 C149.2319,88.6645 149.0399,88.6965 148.8159,88.7915 C148.6239,88.8555 148.4319,88.9525 148.2719,89.0805 C148.1119,89.2075 147.9839,89.3365 147.8559,89.4965 C147.7599,89.6565 147.6629,89.8165 147.5999,89.9765 C147.5349,90.2005 147.4719,90.3925 147.4719,90.6165 C147.4399,90.8085 147.4399,91.0325 147.4399,91.2565 L147.4719,94.8735 Z" id="Fill-35" fill="#FFFFFF" mask="url(#mask-4)"></path>
            <path d="M154.0656,94.8735 L153.2966,94.8735 L153.2966,88.1515 L154.0656,88.1515 L154.0656,89.0805 C154.3846,88.7605 154.7056,88.4725 155.0256,88.2795 C155.3456,88.0875 155.7616,87.9595 156.2106,87.9595 C156.6266,87.9595 157.0096,88.0235 157.3626,88.1845 C157.7136,88.3115 158.0346,88.5675 158.2576,88.9195 C158.4186,89.1765 158.5146,89.4005 158.5456,89.6565 C158.5786,89.9125 158.6106,90.1685 158.6106,90.4565 L158.6106,94.8735 L157.8416,94.8735 L157.8416,90.4885 C157.8416,89.8805 157.7136,89.4325 157.4256,89.1125 C157.1696,88.8245 156.7216,88.6645 156.0826,88.6645 C155.8256,88.6645 155.6336,88.6965 155.4096,88.7915 C155.2176,88.8555 155.0256,88.9525 154.8656,89.0805 C154.7056,89.2075 154.5776,89.3365 154.4496,89.4965 C154.3216,89.6565 154.2566,89.8165 154.1936,89.9765 C154.1286,90.2005 154.0656,90.3925 154.0656,90.6165 C154.0336,90.8085 154.0336,91.0325 154.0336,91.2565 L154.0656,94.8735 Z" id="Fill-36" fill="#FFFFFF" mask="url(#mask-4)"></path>
            <path d="M164.8205,91.481 C164.8205,91.065 164.7885,90.712 164.6925,90.36 C164.5955,90.008 164.4675,89.72 164.2755,89.464 C164.0845,89.208 163.8595,89.016 163.5715,88.856 C163.2835,88.696 162.9315,88.632 162.5155,88.632 C162.0995,88.632 161.7475,88.728 161.4595,88.856 C161.1715,89.016 160.9475,89.24 160.7555,89.496 C160.5625,89.752 160.4345,90.072 160.3715,90.393 C160.2745,90.745 160.2435,91.097 160.2435,91.449 C160.2435,91.865 160.3065,92.249 160.4025,92.601 C160.4995,92.953 160.6595,93.241 160.8505,93.498 C161.0435,93.753 161.2665,93.945 161.5545,94.074 C161.8425,94.202 162.1635,94.266 162.5485,94.266 C162.9645,94.266 163.2835,94.169 163.6035,94.01 C163.8915,93.85 164.1165,93.626 164.3075,93.369 C164.5005,93.113 164.6285,92.793 164.7235,92.473 C164.7565,92.185 164.8205,91.833 164.8205,91.481 M162.5155,95.034 C162.0675,95.034 161.6835,94.938 161.2995,94.81 C160.9155,94.65 160.5945,94.458 160.3065,94.138 C160.0185,93.85 159.7955,93.465 159.6345,93.049 C159.4745,92.601 159.3795,92.089 159.3795,91.513 C159.3795,91.033 159.4425,90.553 159.5705,90.137 C159.6985,89.72 159.8905,89.336 160.1465,89.016 C160.4025,88.696 160.7225,88.44 161.1075,88.248 C161.4915,88.056 161.9395,87.96 162.4515,87.96 C162.9955,87.96 163.4435,88.056 163.8285,88.248 C164.2125,88.44 164.5325,88.696 164.8205,88.984 C165.0765,89.304 165.2685,89.689 165.3965,90.105 C165.5245,90.521 165.5885,91.001 165.5885,91.481 C165.5885,92.025 165.5245,92.505 165.3645,92.953 C165.2045,93.369 165.0115,93.753 164.7235,94.074 C164.4675,94.394 164.1165,94.618 163.7315,94.81 C163.4125,94.938 162.9955,95.034 162.5155,95.034" id="Fill-37" fill="#FFFFFF" mask="url(#mask-4)"></path>
            <polygon id="Fill-38" fill="#FFFFFF" mask="url(#mask-4)" points="165.6848 88.1201 166.5168 88.1201 168.7248 93.8811 170.9018 88.1201 171.7348 88.1201 169.1418 94.8731 168.2778 94.8731"></polygon>
            <path d="M176.6633,91.2886 C176.3433,91.4166 175.9913,91.5126 175.6713,91.5766 C175.3193,91.6086 174.9993,91.6726 174.6463,91.6726 C174.0383,91.7056 173.5913,91.8646 173.2383,92.0886 C172.9183,92.3126 172.7263,92.6646 172.7263,93.1136 C172.7263,93.3376 172.7583,93.4976 172.8543,93.6576 C172.9503,93.8176 173.0463,93.9456 173.1743,94.0416 C173.3033,94.1376 173.4623,94.2016 173.6543,94.2656 C173.8473,94.3296 174.0073,94.3296 174.1983,94.3296 C174.5183,94.3296 174.8073,94.2976 175.0953,94.2016 C175.3833,94.1376 175.6393,94.0096 175.8953,93.8496 C176.1193,93.6896 176.3113,93.4976 176.4393,93.2416 C176.5673,92.9856 176.6633,92.6976 176.6633,92.3766 L176.6633,91.2886 Z M175.3513,90.9046 C175.5113,90.8726 175.6713,90.8726 175.8943,90.8406 C176.0873,90.8086 176.2793,90.7446 176.4073,90.7126 C176.5353,90.6486 176.6003,90.5526 176.6313,90.3926 C176.6633,90.2646 176.6633,90.1046 176.6633,90.0086 C176.6633,89.6246 176.5353,89.2726 176.2793,89.0166 C176.0233,88.7606 175.6063,88.6316 174.9993,88.6316 C174.7433,88.6316 174.4863,88.6636 174.2633,88.6966 C174.0383,88.7276 173.8473,88.8246 173.6863,88.9526 C173.5263,89.0806 173.3663,89.2076 173.2703,89.4326 C173.1743,89.6246 173.0783,89.8806 173.0463,90.1686 L172.2463,90.1686 C172.2783,89.7526 172.3743,89.4326 172.5023,89.1436 C172.6623,88.8556 172.8543,88.6316 173.1103,88.4396 C173.3663,88.2476 173.6543,88.1206 173.9753,88.0556 C174.2953,87.9916 174.6463,87.9276 174.9993,87.9276 C175.3513,87.9276 175.6393,87.9596 175.9593,88.0236 C176.2473,88.0876 176.5033,88.2156 176.7273,88.3756 C176.9513,88.5366 177.1113,88.7606 177.2393,89.0166 C177.3673,89.2726 177.4323,89.6246 177.4323,90.0086 L177.4323,93.6576 C177.4323,93.9456 177.4953,94.1376 177.5923,94.2336 C177.6873,94.3296 177.9113,94.2976 178.2313,94.1696 L178.2313,94.7776 C178.1683,94.7776 178.0713,94.8096 177.9753,94.8416 C177.8483,94.8736 177.7523,94.9056 177.6233,94.9056 C177.4953,94.9056 177.3993,94.9056 177.2713,94.8736 C177.1433,94.8416 177.0473,94.8096 176.9513,94.7456 C176.8883,94.6816 176.8233,94.5856 176.7593,94.5216 C176.7273,94.4256 176.6633,94.3296 176.6633,94.2336 C176.6313,94.1376 176.6313,94.0096 176.6313,93.8816 C176.3113,94.2336 175.9273,94.5216 175.5113,94.7136 C175.0953,94.9056 174.6143,95.0016 174.1353,95.0016 C173.8473,95.0016 173.5593,94.9696 173.2703,94.8736 C172.9823,94.8096 172.7583,94.6816 172.5343,94.5216 C172.3423,94.3616 172.1503,94.1696 172.0543,93.9136 C171.9263,93.6896 171.8623,93.4016 171.8623,93.0496 C171.8623,91.8966 172.6623,91.2246 174.1983,91.0326 L175.3513,90.9046 Z" id="Fill-39" fill="#FFFFFF" mask="url(#mask-4)"></path>
            <path d="M181.2082,94.8418 C181.1122,94.8738 180.9842,94.8738 180.8242,94.9378 C180.6642,94.9698 180.5042,95.0018 180.3122,95.0018 C179.9282,95.0018 179.6402,94.9058 179.4162,94.7138 C179.2242,94.5218 179.0962,94.1698 179.0962,93.6568 L179.0962,88.7278 L178.1362,88.7278 L178.1362,88.0878 L179.0962,88.0878 L179.0962,86.2318 L179.8642,86.2318 L179.8642,88.0878 L181.1122,88.0878 L181.1122,88.7278 L179.8642,88.7278 L179.8642,93.3378 L179.8642,93.7858 C179.8642,93.9138 179.8962,94.0098 179.9282,94.0738 C179.9602,94.1378 180.0242,94.2018 180.1202,94.2338 C180.2162,94.2658 180.3452,94.2978 180.5042,94.2978 C180.6012,94.2978 180.7292,94.2978 180.8242,94.2658 C180.9202,94.2338 181.0492,94.2338 181.1452,94.2018 L181.2082,94.8418 Z" id="Fill-40" fill="#FFFFFF" mask="url(#mask-4)"></path>
            <path d="M181.945,94.81 L182.714,94.81 L182.714,88.088 L181.945,88.088 L181.945,94.81 Z M181.881,86.615 L182.745,86.615 L182.745,85.463 L181.881,85.463 L181.881,86.615 Z" id="Fill-41" fill="#FFFFFF" mask="url(#mask-4)"></path>
            <path d="M188.9865,91.4487 C188.9865,91.0327 188.9545,90.6807 188.8585,90.3287 C188.7625,89.9767 188.6345,89.6887 188.4425,89.4317 C188.2505,89.1767 188.0265,88.9847 187.7385,88.8237 C187.4505,88.6637 187.0975,88.5997 186.6815,88.5997 C186.2655,88.5997 185.9145,88.6967 185.6265,88.8557 C185.3385,89.0157 185.0815,89.2407 184.9225,89.4957 C184.7295,89.7527 184.6015,90.0727 184.5055,90.3927 C184.4095,90.7447 184.3775,91.0967 184.3775,91.4487 C184.3775,91.8647 184.4415,92.2487 184.5375,92.6007 C184.6335,92.9527 184.7935,93.2407 184.9855,93.4977 C185.1775,93.7537 185.4015,93.9457 185.6895,94.0737 C185.9775,94.2017 186.2985,94.2657 186.6815,94.2657 C187.0975,94.2657 187.4505,94.2017 187.7385,94.0097 C188.0265,93.8497 188.2505,93.6257 188.4425,93.3687 C188.6345,93.1137 188.7625,92.7927 188.8265,92.4727 C188.9545,92.1527 189.0185,91.8007 188.9865,91.4487 M186.7145,94.9697 C186.2985,94.9697 185.8825,94.8737 185.4985,94.7457 C185.1135,94.5857 184.7935,94.3937 184.5055,94.0737 C184.2165,93.7857 183.9935,93.4017 183.8335,92.9857 C183.6735,92.5367 183.5775,92.0247 183.5775,91.4487 C183.5775,90.9687 183.6415,90.4887 183.7695,90.0727 C183.8975,89.6567 184.0895,89.2727 184.3455,88.9517 C184.6015,88.6327 184.9225,88.3757 185.3055,88.1837 C185.6895,87.9917 186.1375,87.8957 186.6815,87.8957 C187.2265,87.8957 187.6745,87.9917 188.0585,88.1837 C188.4425,88.3757 188.7625,88.6327 189.0505,88.9197 C189.3065,89.2407 189.4995,89.6247 189.6275,90.0407 C189.7555,90.4887 189.8185,90.9367 189.8185,91.4487 C189.8185,91.9927 189.7555,92.4727 189.5945,92.8887 C189.4345,93.3377 189.2425,93.6897 188.9545,94.0097 C188.6665,94.3297 188.3465,94.5537 187.9625,94.7457 C187.6105,94.9057 187.1945,94.9697 186.7145,94.9697" id="Fill-42" fill="#FFFFFF" mask="url(#mask-4)"></path>
            <path d="M191.3879,94.8096 L190.6189,94.8096 L190.6189,88.0876 L191.3879,88.0876 L191.3879,89.0166 C191.7069,88.6966 192.0279,88.4086 192.3479,88.2156 C192.6679,88.0236 193.0839,87.8956 193.5639,87.8956 C193.9799,87.8956 194.3649,87.9596 194.7159,88.1206 C195.0689,88.2476 195.3569,88.5036 195.6129,88.8556 C195.7729,89.1126 195.8679,89.3366 195.9009,89.5926 C195.9329,89.8486 195.9329,90.1046 195.9329,90.3926 L195.9329,94.8096 L195.1639,94.8096 L195.1639,90.4246 C195.1639,89.8166 195.0359,89.3686 194.7479,89.0486 C194.4919,88.7606 194.0439,88.6006 193.4039,88.6006 C193.1479,88.6006 192.9239,88.6316 192.7319,88.7276 C192.5389,88.7916 192.3479,88.8886 192.1879,89.0166 C192.0279,89.1436 191.8999,89.2726 191.7719,89.4326 C191.6759,89.5926 191.5789,89.7526 191.5159,89.9126 C191.4509,90.1366 191.3879,90.3286 191.3879,90.5526 C191.3879,90.7446 191.3559,90.9686 191.3559,91.1926 L191.3879,94.8096 Z" id="Fill-43" fill="#FFFFFF" mask="url(#mask-4)"></path>
            <path d="M197.6613,92.665 C197.7893,93.241 198.0133,93.657 198.3333,93.881 C198.6533,94.105 199.1013,94.233 199.6783,94.233 C199.9663,94.233 200.2223,94.202 200.4143,94.138 C200.6053,94.074 200.7983,93.977 200.9263,93.85 C201.0543,93.722 201.1493,93.593 201.2463,93.465 C201.3093,93.305 201.3423,93.177 201.3423,92.985 C201.3423,92.665 201.2463,92.409 201.0213,92.249 C200.7983,92.089 200.5423,91.961 200.2223,91.865 C199.9013,91.769 199.5503,91.705 199.1653,91.641 C198.7813,91.577 198.4613,91.481 198.1093,91.353 C197.7893,91.225 197.5333,91.033 197.3083,90.809 C197.0853,90.553 196.9883,90.232 196.9883,89.784 C196.9883,89.208 197.1813,88.76 197.5973,88.408 C198.0133,88.056 198.5893,87.864 199.3253,87.864 C200.0613,87.864 200.6383,88.024 201.0863,88.344 C201.5343,88.664 201.8223,89.208 201.9183,89.977 L201.1183,89.977 C201.0543,89.464 200.8613,89.08 200.5423,88.888 C200.2223,88.664 199.8063,88.568 199.3253,88.568 C198.8133,88.568 198.4613,88.664 198.2053,88.888 C197.9493,89.112 197.8213,89.368 197.8213,89.72 C197.8213,90.008 197.9173,90.265 198.1403,90.425 C198.3653,90.584 198.6213,90.712 198.9413,90.809 C199.2623,90.905 199.6133,91 199.9983,91.065 C200.3823,91.129 200.7023,91.257 201.0213,91.385 C201.3423,91.513 201.5983,91.705 201.8223,91.961 C202.0463,92.217 202.1423,92.537 202.1423,92.985 C202.1423,93.305 202.0783,93.593 201.9503,93.85 C201.8223,94.105 201.6303,94.298 201.3743,94.457 C201.1183,94.618 200.8623,94.746 200.5103,94.842 C200.1893,94.938 199.8063,94.97 199.4223,94.97 C199.0373,94.97 198.6853,94.906 198.3653,94.81 C198.0453,94.682 197.7893,94.521 197.5643,94.33 C197.3413,94.105 197.1813,93.881 197.0533,93.593 C196.9253,93.305 196.8603,93.017 196.8293,92.697 L197.6613,92.665 Z" id="Fill-44" fill="#FFFFFF" mask="url(#mask-4)"></path>
            <path d="M212.7688,88.1201 C212.5778,87.3201 212.2568,86.7441 211.7458,86.4231 C211.2328,86.0711 210.5928,85.9111 209.7918,85.9111 C209.2158,85.9111 208.7368,86.0391 208.3518,86.2641 C207.9358,86.4871 207.6158,86.8081 207.3598,87.1601 C207.1038,87.5441 206.9118,87.9921 206.7838,88.4721 C206.6558,88.9841 206.5918,89.4961 206.5918,90.0401 C206.5918,90.5531 206.6558,91.0651 206.7508,91.5771 C206.8478,92.0891 207.0398,92.5371 207.2958,92.9211 C207.5518,93.3051 207.9038,93.6251 208.3208,93.8811 C208.7368,94.1381 209.2808,94.2331 209.9198,94.2331 C210.3048,94.2331 210.6888,94.1691 211.0088,94.0411 C211.3298,93.9131 211.6178,93.7221 211.8728,93.4971 C212.1288,93.2731 212.3218,92.9851 212.4818,92.6971 C212.6408,92.3771 212.7698,92.0571 212.8658,91.6731 L213.7928,91.6731 C213.6978,92.1211 213.5378,92.5371 213.3458,92.9531 C213.1538,93.3691 212.8978,93.7221 212.5778,94.0091 C212.2568,94.3291 211.8728,94.5541 211.3928,94.7451 C210.9128,94.9381 210.4008,95.0021 209.7608,95.0021 C209.0248,95.0021 208.4158,94.8731 207.9038,94.6181 C207.3918,94.3621 206.9758,94.0091 206.6558,93.5611 C206.3348,93.1131 206.0798,92.6011 205.9518,91.9931 C205.7908,91.3851 205.7278,90.7771 205.7278,90.1041 C205.7278,89.2081 205.8238,88.4401 206.0468,87.8321 C206.2718,87.2241 206.5598,86.7111 206.9758,86.2951 C207.3598,85.9111 207.8078,85.6231 208.3518,85.4311 C208.8648,85.2391 209.4408,85.1751 210.0808,85.1751 C210.5608,85.1751 211.0088,85.2391 211.3928,85.3671 C211.8088,85.4951 212.1618,85.6871 212.4818,85.9431 C212.8008,86.1991 213.0578,86.4871 213.2818,86.8711 C213.4738,87.2241 213.6338,87.6721 213.6978,88.1521 L212.7688,88.1201 Z" id="Fill-45" fill="#FFFFFF" mask="url(#mask-4)"></path>
            <path d="M219.6194,90.9048 C219.6194,90.5848 219.5554,90.2648 219.4914,89.9768 C219.3944,89.6888 219.2664,89.4318 219.0754,89.2078 C218.8834,88.9848 218.6584,88.8238 218.4024,88.6968 C218.1464,88.5678 217.8264,88.5038 217.4744,88.5038 C217.1224,88.5038 216.8344,88.5678 216.5464,88.6968 C216.2904,88.8238 216.0664,89.0158 215.8744,89.2078 C215.6814,89.4318 215.5214,89.6888 215.4264,89.9768 C215.2984,90.2648 215.2334,90.5528 215.2024,90.8728 L219.6194,90.9048 Z M215.2334,91.5768 C215.2334,91.9288 215.2654,92.2808 215.3614,92.6008 C215.4584,92.9218 215.5864,93.2098 215.7784,93.4338 C215.9704,93.6568 216.1944,93.8498 216.4824,94.0098 C216.7704,94.1378 217.0904,94.2338 217.4744,94.2338 C217.9864,94.2338 218.4344,94.1058 218.7874,93.8178 C219.1394,93.5618 219.3944,93.1768 219.5224,92.6648 L220.3874,92.6648 C220.2914,92.9858 220.1634,93.2738 220.0034,93.5618 C219.8434,93.8498 219.6514,94.0738 219.4274,94.2658 C219.2034,94.4578 218.9154,94.6178 218.5954,94.7458 C218.2744,94.8418 217.8904,94.9058 217.4744,94.9058 C216.9304,94.9058 216.4824,94.8098 216.0664,94.6498 C215.6814,94.4578 215.3614,94.2338 215.1054,93.9138 C214.8494,93.5928 214.6574,93.2408 214.5614,92.7938 C214.4334,92.3768 214.3694,91.8968 214.3694,91.4168 C214.3694,90.9368 214.4334,90.4568 214.5944,90.0408 C214.7544,89.6248 214.9454,89.2398 215.2024,88.9208 C215.4584,88.5998 215.7784,88.3438 216.1624,88.1518 C216.5464,87.9598 216.9624,87.8638 217.4744,87.8638 C218.4024,87.8638 219.1394,88.1838 219.6514,88.8238 C220.1954,89.4648 220.4514,90.3928 220.4514,91.6088 L215.2334,91.5768 Z" id="Fill-46" fill="#FFFFFF" mask="url(#mask-4)"></path>
            <path d="M222.0842,94.7456 L221.3152,94.7456 L221.3152,88.0236 L222.0842,88.0236 L222.0842,88.9526 C222.4032,88.6316 222.7242,88.3446 223.0442,88.1516 C223.3642,87.9596 223.7802,87.8316 224.2602,87.8316 C224.6762,87.8316 225.0612,87.8956 225.4122,88.0566 C225.7652,88.2156 226.0532,88.4396 226.3092,88.7916 C226.4692,89.0486 226.5642,89.2726 226.5972,89.5286 C226.6292,89.7846 226.6292,90.0406 226.6292,90.3286 L226.6292,94.7456 L225.8602,94.7456 L225.8602,90.3606 C225.8602,89.7526 225.7322,89.3046 225.4442,88.9846 C225.1882,88.6966 224.7402,88.5366 224.1002,88.5366 C223.8442,88.5366 223.6522,88.5676 223.4282,88.6636 C223.2362,88.7276 223.0442,88.8246 222.8842,88.9526 C222.7242,89.0796 222.5962,89.2076 222.4682,89.3686 C222.3402,89.5286 222.2752,89.6886 222.2122,89.8486 C222.1472,90.0726 222.0842,90.2646 222.0842,90.4566 C222.0522,90.6486 222.0522,90.8726 222.0522,91.0966 L222.0842,94.7456 Z" id="Fill-47" fill="#FFFFFF" mask="url(#mask-4)"></path>
            <path d="M230.2463,94.7456 C230.1493,94.7776 230.0213,94.8096 229.8613,94.8416 C229.7013,94.8736 229.5423,94.9056 229.3503,94.9056 C228.9663,94.9056 228.6783,94.8096 228.4533,94.6176 C228.2623,94.4256 228.1653,94.0736 228.1333,93.5616 L228.1333,88.6326 L227.1733,88.6326 L227.1733,87.9916 L228.1333,87.9916 L228.1333,86.1356 L228.9013,86.1356 L228.9013,87.9916 L230.1493,87.9916 L230.1493,88.6326 L228.9013,88.6326 L228.9013,93.2416 L228.9013,93.6576 C228.9013,93.7856 228.9343,93.8816 228.9663,93.9456 C228.9973,94.0096 229.0613,94.0736 229.1573,94.1056 C229.2543,94.1376 229.3823,94.1696 229.5423,94.1696 C229.6383,94.1696 229.7663,94.1696 229.8613,94.1376 C229.9583,94.1056 230.0863,94.1056 230.1823,94.0736 L230.2463,94.7456 Z" id="Fill-48" fill="#FFFFFF" mask="url(#mask-4)"></path>
            <path d="M235.7199,90.8726 C235.7199,90.5526 235.6559,90.2326 235.5909,89.9446 C235.4949,89.6566 235.3669,89.4006 235.1749,89.1766 C234.9839,88.9526 234.7589,88.7916 234.5029,88.6646 C234.2469,88.5366 233.9269,88.4726 233.5739,88.4726 C233.2229,88.4726 232.9349,88.5366 232.6469,88.6646 C232.3909,88.7916 232.1659,88.9846 231.9749,89.1766 C231.7819,89.4006 231.6549,89.6246 231.5269,89.9446 C231.4299,90.2326 231.3339,90.5206 231.3019,90.8406 L235.7199,90.8726 Z M231.3339,91.5446 C231.3339,91.8966 231.3989,92.2486 231.4939,92.5696 C231.5899,92.8896 231.7179,93.1776 231.9099,93.4016 C232.1029,93.6256 232.3259,93.8176 232.6149,93.9776 C232.9029,94.1056 233.2229,94.2016 233.6069,94.2016 C234.1189,94.2016 234.5679,94.0736 234.9189,93.7856 C235.2719,93.5296 235.5279,93.1456 235.6559,92.6336 L236.5199,92.6336 C236.4239,92.9536 236.2949,93.2416 236.1359,93.5296 C235.9759,93.8176 235.7829,94.0416 235.5599,94.2336 C235.3349,94.4256 235.0469,94.5856 234.7269,94.7136 C234.4079,94.8416 234.0229,94.8736 233.6069,94.8736 C233.0629,94.8736 232.6149,94.7776 232.2309,94.6176 C231.8469,94.4256 231.5269,94.2016 231.2709,93.8816 C231.0139,93.5616 230.8229,93.1776 230.6949,92.7616 C230.5659,92.3456 230.5019,91.8646 230.5019,91.3846 C230.5019,90.9046 230.5659,90.4246 230.7259,90.0086 C230.8539,89.5606 231.0779,89.2086 231.3339,88.8556 C231.5899,88.5366 231.9099,88.2796 232.2939,88.0876 C232.6789,87.8956 233.0949,87.7996 233.6069,87.7996 C234.5349,87.7996 235.2719,88.1206 235.7829,88.7606 C236.3269,89.4006 236.5839,90.3286 236.5839,91.5446 L231.3339,91.5446 Z" id="Fill-49" fill="#FFFFFF" mask="url(#mask-4)"></path>
            <path d="M238.2483,94.7139 L237.4793,94.7139 L237.4793,87.9919 L238.2483,87.9919 L238.2483,89.2399 L238.2803,89.2399 C238.5043,88.6959 238.7923,88.3439 239.1123,88.1199 C239.4643,87.8959 239.9123,87.7999 240.4563,87.7999 L240.4563,88.6319 C240.0093,88.6319 239.6563,88.6959 239.3683,88.8559 C239.0803,89.0159 238.8563,89.2079 238.6963,89.4639 C238.5363,89.7199 238.4083,90.0079 238.3443,90.3599 C238.2803,90.7129 238.2483,91.0649 238.2483,91.4169 L238.2483,94.7139 Z" id="Fill-50" fill="#FFFFFF" mask="url(#mask-4)"></path>
        </g>
    </g>
</svg>